#!OML:ASF F:\VICON\USERDATA\INSTALL\rory3\rory3.ASF
:FULLY-SPECIFIED
:DEGREES
942
root 0.695592 15.7135 -4.08818 -19.1388 -41.8456 3.96368
lowerback 22.2899 2.66696 -4.29912
upperback 10.9701 2.318 2.45231
thorax -0.701084 0.761584 4.56093
lowerneck -23.7834 2.9239 -6.07124
upperneck 18.7425 4.90521 5.18108
head 9.53648 2.45717 3.52949
rclavicle -4.55217e-014 1.74931e-014
rhumerus -21.2217 8.99733 -82.8741
rradius 87.1208
rwrist 37.1176
rhand -25.4316 9.30523
rfingers 7.12502
rthumb 1.09477 -20.6717
lclavicle -4.55217e-014 1.74931e-014
lhumerus -19.0298 -16.98 91.4603
lradius 66.0812
lwrist -13.643
lhand -20.8495 17.1241
lfingers 7.12502
lthumb 5.51966 47.0322
rfemur -78.4832 -32.9969 30.4625
rtibia 137.73
rfoot 5.51063 4.52388
rtoes 2.96414
lfemur -51.1028 38.088 -15.4132
ltibia 116.914
lfoot 10.5672 -19.7554
ltoes -26.2796
943
root 0.694787 15.7161 -4.08631 -19.2013 -41.8495 4.05825
lowerback 22.2797 2.68107 -4.33949
upperback 10.9666 2.32858 2.42999
thorax -0.701335 0.766263 4.55756
lowerneck -23.8412 2.84962 -6.13198
upperneck 18.8081 4.80482 5.27523
head 9.57202 2.41647 3.56281
rclavicle -8.48811e-014 5.64548e-014
rhumerus -21.1944 8.95467 -82.917
rradius 87.1075
rwrist 37.1912
rhand -25.3917 9.36724
rfingers 7.12502
rthumb 1.13326 -20.6095
lclavicle -8.48811e-014 5.64548e-014
lhumerus -19.1139 -16.9865 91.5022
lradius 66.096
lwrist -13.7477
lhand -20.781 17.1553
lfingers 7.12502
lthumb 5.5858 47.0617
rfemur -78.4441 -32.9553 30.3509
rtibia 137.709
rfoot 5.53331 4.55521
rtoes 2.80545
lfemur -51.0296 38.1145 -15.4841
ltibia 116.879
lfoot 10.5344 -19.7388
ltoes -26.3015
944
root 0.695896 15.719 -4.08582 -19.1913 -41.8528 4.04791
lowerback 22.2904 2.66852 -4.30159
upperback 10.9649 2.31902 2.43007
thorax -0.706409 0.763007 4.53793
lowerneck -23.9462 2.76934 -6.15246
upperneck 18.8972 4.69874 5.31034
head 9.62761 2.36853 3.57031
rclavicle -5.80451e-014 2.3059e-014
rhumerus -21.1988 8.97707 -82.9452
rradius 87.1179
rwrist 37.2315
rhand -25.394 9.40472
rfingers 7.12502
rthumb 1.13103 -20.572
lclavicle -5.80451e-014 2.3059e-014
lhumerus -19.1458 -17.0002 91.5098
lradius 66.1118
lwrist -13.7605
lhand -20.7897 17.1032
lfingers 7.12502
lthumb 5.57744 47.0098
rfemur -78.4043 -32.9329 30.3104
rtibia 137.69
rfoot 5.55561 4.55414
rtoes 3.04177
lfemur -50.9993 38.1017 -15.4841
ltibia 116.856
lfoot 10.531 -19.7357
ltoes -26.3242
945
root 0.696042 15.7213 -4.08624 -19.2289 -41.8681 4.07163
lowerback 22.3197 2.65611 -4.30368
upperback 10.9767 2.2995 2.4126
thorax -0.705157 0.752778 4.52443
lowerneck -24.0054 2.71797 -6.11268
upperneck 18.8864 4.6291 5.26272
head 9.64146 2.3337 3.53891
rclavicle 7.13637e-014 -3.4191e-014
rhumerus -21.1629 9.01766 -82.9734
rradius 87.1528
rwrist 37.3425
rhand -25.1358 9.36024
rfingers 7.12502
rthumb 1.38045 -20.615
lclavicle 7.13637e-014 -3.4191e-014
lhumerus -19.1508 -16.9718 91.4839
lradius 66.127
lwrist -13.7417
lhand -20.8981 17.2245
lfingers 7.12502
lthumb 5.47269 47.1338
rfemur -78.3531 -32.8738 30.2567
rtibia 137.69
rfoot 5.55226 4.53434
rtoes 3.02669
lfemur -50.9806 38.0891 -15.4652
ltibia 116.835
lfoot 10.6471 -19.6865
ltoes -26.184
946
root 0.693086 15.7107 -4.08476 -19.2417 -41.8873 4.08771
lowerback 22.3169 2.65052 -4.31512
upperback 10.9893 2.28886 2.39786
thorax -0.688523 0.746383 4.51772
lowerneck -23.9692 2.67449 -6.06631
upperneck 18.7801 4.56426 5.20987
head 9.60466 2.30256 3.49908
rclavicle 6.2816e-014 -3.49861e-014
rhumerus -21.112 9.00373 -83.0212
rradius 87.1578
rwrist 37.4694
rhand -24.8946 9.36399
rfingers 7.12502
rthumb 1.6134 -20.6097
lclavicle 6.2816e-014 -3.49861e-014
lhumerus -19.1742 -16.9382 91.4662
lradius 66.1644
lwrist -13.7152
lhand -20.907 17.2967
lfingers 7.12502
lthumb 5.46414 47.2063
rfemur -78.4247 -32.6877 30.2377
rtibia 137.779
rfoot 5.54749 4.45821
rtoes 3.20868
lfemur -50.6519 38.3311 -15.4664
ltibia 116.885
lfoot 9.53053 -19.966
ltoes -28.4379
947
root 0.691903 15.7077 -4.08427 -19.2672 -41.8753 4.17222
lowerback 22.2973 2.65716 -4.39402
upperback 10.9762 2.28381 2.39367
thorax -0.694422 0.741803 4.55971
lowerneck -23.8828 2.62019 -6.08404
upperneck 18.665 4.4905 5.21449
head 9.55325 2.26959 3.48696
rclavicle 4.77083e-015 -1.66979e-014
rhumerus -21.0798 8.98737 -83.0039
rradius 87.1534
rwrist 37.4985
rhand -24.7942 9.44789
rfingers 7.12502
rthumb 1.71036 -20.525
lclavicle 4.77083e-015 -1.66979e-014
lhumerus -19.218 -16.8779 91.506
lradius 66.1976
lwrist -13.7093
lhand -22.3493 17.5573
lfingers 7.12502
lthumb 4.07149 47.4981
rfemur -78.4914 -32.6297 30.164
rtibia 137.828
rfoot 5.58431 4.42795
rtoes 3.67868
lfemur -50.7009 38.3643 -15.5771
ltibia 116.917
lfoot 9.51792 -19.7904
ltoes -27.7013
948
root 0.690608 15.7052 -4.08373 -19.3334 -41.8558 4.3127
lowerback 22.2799 2.6682 -4.50444
upperback 10.9683 2.27739 2.36752
thorax -0.695383 0.735641 4.59634
lowerneck -23.912 2.56459 -6.0844
upperneck 18.661 4.41818 5.20506
head 9.56213 2.23499 3.47447
rclavicle 1.98785e-015 -1.66979e-014
rhumerus -21.0291 8.96316 -83.0135
rradius 87.1218
rwrist 37.669
rhand -24.5776 9.49935
rfingers 7.12502
rthumb 1.91956 -20.4718
lclavicle 1.98785e-015 -1.66979e-014
lhumerus -19.2332 -16.8203 91.5045
lradius 66.1902
lwrist -13.7623
lhand -22.7417 17.5514
lfingers 7.12502
lthumb 3.6925 47.4991
rfemur -78.5571 -32.6114 30.0578
rtibia 137.854
rfoot 5.61567 4.40046
rtoes 4.12207
lfemur -50.6573 38.3955 -15.7196
ltibia 116.914
lfoot 9.13746 -19.7901
ltoes -27.784
949
root 0.69028 15.7055 -4.083 -19.385 -41.8501 4.34722
lowerback 22.3064 2.65552 -4.49302
upperback 10.9821 2.25992 2.33524
thorax -0.689973 0.727317 4.55864
lowerneck -23.9417 2.51336 -6.03081
upperneck 18.627 4.34015 5.16637
head 9.56295 2.1987 3.44115
rclavicle -5.36719e-014 1.74931e-014
rhumerus -20.9642 8.94908 -83.0782
rradius 87.0669
rwrist 37.8536
rhand -24.463 9.50947
rfingers 7.12502
rthumb 2.03023 -20.4606
lclavicle -5.36719e-014 1.74931e-014
lhumerus -19.2186 -16.862 91.4374
lradius 66.1646
lwrist -13.7697
lhand -22.7083 17.5659
lfingers 7.12502
lthumb 3.72483 47.5131
rfemur -78.4965 -32.6027 30.0453
rtibia 137.827
rfoot 5.57436 4.4133
rtoes 3.73994
lfemur -50.5294 38.4155 -15.7227
ltibia 116.898
lfoot 8.88449 -19.8165
ltoes -28.2645
950
root 0.689627 15.7052 -4.08131 -19.3517 -41.8496 4.31778
lowerback 22.2882 2.65164 -4.44271
upperback 10.9918 2.26504 2.32704
thorax -0.669597 0.731305 4.52018
lowerneck -23.99 2.41591 -6.00809
upperneck 18.5941 4.20369 5.15633
head 9.56973 2.13661 3.41535
rclavicle -4.8901e-014 1.98785e-014
rhumerus -20.9142 8.87837 -83.1369
rradius 87.0325
rwrist 37.8762
rhand -24.4713 9.5773
rfingers 7.12502
rthumb 2.02222 -20.3929
lclavicle -4.8901e-014 1.98785e-014
lhumerus -19.1916 -16.926 91.4081
lradius 66.1406
lwrist -13.7728
lhand -22.6042 17.5849
lfingers 7.12502
lthumb 3.82531 47.5303
rfemur -78.52 -32.5449 30.1205
rtibia 137.809
rfoot 5.53361 4.37347
rtoes 3.0934
lfemur -50.5377 38.451 -15.7141
ltibia 116.912
lfoot 8.87021 -19.8342
ltoes -28.2768
951
root 0.688024 15.7028 -4.07965 -19.3212 -41.8842 4.29733
lowerback 22.2501 2.65406 -4.42516
upperback 10.9967 2.27333 2.3298
thorax -0.646094 0.735411 4.5119
lowerneck -23.9682 2.34035 -6.04103
upperneck 18.5321 4.10225 5.19186
head 9.54911 2.09257 3.41654
rclavicle 4.55217e-014 -3.02153e-014
rhumerus -20.9169 8.88517 -83.1454
rradius 87.0627
rwrist 37.8192
rhand -24.4372 9.64332
rfingers 7.12502
rthumb 2.05511 -20.3265
lclavicle 4.55217e-014 -3.02153e-014
lhumerus -19.2073 -16.9395 91.3874
lradius 66.1572
lwrist -13.7523
lhand -22.5907 17.589
lfingers 7.12502
lthumb 3.83837 47.5342
rfemur -78.5626 -32.4211 30.1433
rtibia 137.83
rfoot 5.56997 4.27473
rtoes 3.32724
lfemur -50.4978 38.568 -15.6884
ltibia 116.936
lfoot 8.67047 -19.8322
ltoes -28.4545
952
root 0.687308 15.7025 -4.07853 -19.2901 -41.8757 4.29907
lowerback 22.1908 2.62938 -4.40841
upperback 11.0053 2.24709 2.32055
thorax -0.603925 0.722113 4.49946
lowerneck -23.8294 2.26501 -6.04766
upperneck 18.282 4.00713 5.14224
head 9.44427 2.04598 3.37516
rclavicle -5.94366e-014 -1.74931e-014
rhumerus -20.9111 8.93431 -83.1692
rradius 87.0802
rwrist 37.7777
rhand -24.5261 9.63375
rfingers 7.12502
rthumb 1.96927 -20.3369
lclavicle -5.94366e-014 -1.74931e-014
lhumerus -19.2095 -16.9142 91.3539
lradius 66.1804
lwrist -13.7191
lhand -22.5855 17.6186
lfingers 7.12502
lthumb 3.84342 47.5637
rfemur -78.6127 -32.3887 30.1372
rtibia 137.841
rfoot 5.62286 4.24146
rtoes 3.63197
lfemur -50.5091 38.5822 -15.7293
ltibia 116.937
lfoot 8.40227 -19.7037
ltoes -27.8023
953
root 0.686835 15.7037 -4.07777 -19.2815 -41.8519 4.29021
lowerback 22.1958 2.60513 -4.38721
upperback 10.9988 2.21945 2.31146
thorax -0.609743 0.709729 4.48367
lowerneck -23.6951 2.19891 -6.08224
upperneck 18.0579 3.92246 5.14364
head 9.3471 2.00788 3.35899
rclavicle 5.36719e-014 -4.37326e-014
rhumerus -20.9139 8.9812 -83.1834
rradius 87.0872
rwrist 37.748
rhand -24.4862 9.634
rfingers 7.12502
rthumb 2.00783 -20.3363
lclavicle 5.36719e-014 -4.37326e-014
lhumerus -19.2692 -16.8686 91.353
lradius 66.1952
lwrist -13.7423
lhand -22.6716 17.6146
lfingers 7.12502
lthumb 3.7602 47.5612
rfemur -78.5954 -32.4134 30.1448
rtibia 137.824
rfoot 5.59583 4.24927
rtoes 3.35319
lfemur -50.5282 38.5519 -15.7436
ltibia 116.939
lfoot 8.6401 -19.6203
ltoes -27.4669
954
root 0.686146 15.7085 -4.07675 -19.2747 -41.8755 4.25632
lowerback 22.2166 2.58917 -4.35215
upperback 10.9984 2.20394 2.3093
thorax -0.617808 0.703294 4.46447
lowerneck -23.6354 2.15326 -6.14699
upperneck 17.9682 3.86792 5.19414
head 9.30631 1.98536 3.37535
rclavicle 9.06458e-014 -5.56597e-014
rhumerus -20.9305 9.02798 -83.2102
rradius 87.1112
rwrist 37.7552
rhand -24.4413 9.63255
rfingers 7.12502
rthumb 2.05118 -20.3373
lclavicle 9.06458e-014 -5.56597e-014
lhumerus -19.2929 -16.8079 91.3463
lradius 66.1851
lwrist -13.7514
lhand -22.2084 17.6437
lfingers 7.12502
lthumb 4.20751 47.5819
rfemur -78.5025 -32.4057 30.1496
rtibia 137.786
rfoot 5.58132 4.26137
rtoes 3.18797
lfemur -50.4724 38.5567 -15.6732
ltibia 116.914
lfoot 8.46358 -19.7053
ltoes -27.6144
955
root 0.686055 15.7106 -4.07744 -19.2813 -41.8687 4.27195
lowerback 22.2015 2.56088 -4.32884
upperback 11.0083 2.17065 2.26688
thorax -0.594054 0.687769 4.41326
lowerneck -23.5678 2.12116 -6.14884
upperneck 17.8494 3.81507 5.22323
head 9.25578 1.96592 3.3732
rclavicle -1.59028e-014 -4.77083e-015
rhumerus -20.901 9.03519 -83.272
rradius 87.0929
rwrist 37.7285
rhand -24.3966 9.80168
rfingers 7.12502
rthumb 2.09436 -20.1678
lclavicle -1.59028e-014 -4.77083e-015
lhumerus -19.2678 -16.7788 91.2756
lradius 66.1786
lwrist -13.6985
lhand -20.4106 17.5443
lfingers 7.12502
lthumb 5.94337 47.4409
rfemur -78.4584 -32.3884 30.124
rtibia 137.759
rfoot 5.58549 4.23254
rtoes 3.20568
lfemur -50.4848 38.5172 -15.6802
ltibia 116.893
lfoot 8.7847 -19.5679
ltoes -27.1302
956
root 0.686211 15.711 -4.07898 -19.2182 -41.8354 4.2116
lowerback 22.1826 2.53103 -4.30773
upperback 11.0308 2.13672 2.29061
thorax -0.556609 0.669135 4.43522
lowerneck -23.6241 2.07179 -6.19227
upperneck 17.8027 3.76656 5.22244
head 9.25166 1.94136 3.37335
rclavicle -4.17448e-015 -8.74653e-015
rhumerus -20.8269 9.04084 -83.25
rradius 87.0779
rwrist 37.6958
rhand -24.3412 10.0554
rfingers 7.12502
rthumb 2.14787 -19.9135
lclavicle -4.17448e-015 -8.74653e-015
lhumerus -19.1962 -16.7112 91.2651
lradius 66.1669
lwrist -13.6794
lhand -20.5657 17.3565
lfingers 7.12502
lthumb 5.79369 47.2573
rfemur -78.4726 -32.3914 30.1465
rtibia 137.762
rfoot 5.58371 4.21727
rtoes 3.42881
lfemur -50.5805 38.4512 -15.671
ltibia 116.898
lfoot 8.7278 -19.6505
ltoes -26.9282
